<?xml version="1.0" encoding="utf-8"?>
<!-- Generator: Adobe Illustrator 19.0.0, SVG Export Plug-In . SVG Version: 6.00 Build 0)  -->
<svg version="1.1" id="Layer_1" xmlns="http://www.w3.org/2000/svg" xmlns:xlink="http://www.w3.org/1999/xlink" x="0px" y="0px"
	 viewBox="0 0 81.5 30.5" style="enable-background:new 0 0 81.5 30.5;" xml:space="preserve">
<style type="text/css">
	.st0{clip-path:url(#SVGID_2_);fill:#FFFFFF;}
	
		.st1{clip-path:url(#SVGID_2_);fill:none;stroke:#FFFFFF;stroke-width:0.5;stroke-linecap:round;stroke-linejoin:round;stroke-miterlimit:10;}
	.st2{clip-path:url(#SVGID_2_);fill:#004E76;}
	.st3{clip-path:url(#SVGID_2_);fill:#A62055;}
	.st4{clip-path:url(#SVGID_2_);fill:#3ABFF0;}
	.st5{clip-path:url(#SVGID_2_);fill:#E6331F;}
	.st6{clip-path:url(#SVGID_2_);fill:#96B522;}
	.st7{clip-path:url(#SVGID_2_);fill:#FDC300;}
</style>
<g>
	<defs>
		<rect id="SVGID_1_" width="81.5" height="30.5"/>
	</defs>
	<clipPath id="SVGID_2_">
		<use xlink:href="#SVGID_1_"  style="overflow:visible;"/>
	</clipPath>
	<path class="st0" d="M81.2,5c0,0.4-0.2,0.9-0.7,1.1c-0.7,0.2-1.2,0.6-1.3,0.8c-0.1,0.1-0.4,0.7-0.5,1c-0.2,0.6-0.3,1.2-0.3,2.3
		c0,0.1,0,2.1-0.1,2.9s-0.6,1.5-1.1,1.5c-0.2,0-0.3-0.1-0.4-0.2c-0.1-0.2-0.2-0.4-0.1-0.8c0.1-0.3,0-0.8-0.1-1.3
		c-0.8,1.4-1.6,2.5-2.6,3.4c-0.8,2.2-2.4,3.6-3.7,4.5c-0.7,0.5-1.7,1.1-2.9,1.8c-2.5,1.5-5.7,3.3-8,5.5c-0.6,0.6-1.1,1.1-1.5,1.6
		c-0.7,0.8-1,1.1-1.4,1.1c-0.1,0-0.4,0-0.6-0.5c-0.3-0.7-0.2-2.3,1-3.5c2-2,3.7-3,5.5-4c0.3-0.2,1.2-0.7,1.4-0.8
		c0.8-0.5,2.7-1.7,3.2-2c0.6-0.3,0.9-0.8,1-1.3l-0.2,0.1c-0.4,0.1-1.8,0.5-2.4,0.8c-2.9,1.1-5.6,2.6-7.9,4.3
		c-0.8,0.6-1.4,1.2-1.7,1.6c-0.4,0.4-0.6,0.7-1,0.7c-0.3,0-0.5-0.2-0.7-0.6c-0.3-0.7-0.1-2.1,1.4-3.3c1-0.8,3.7-2.2,3.8-2.2
		c0,0,2.3-1.1,3.4-1.8c1.1-0.7,2.2-1.4,2.5-1.7l0.1-0.1c-0.6-0.1-1.3-0.2-2.3-0.3c-3.7-0.4-6.7-1.6-9.1-3.9c-2.3-2.1-3.2-5-3.3-5.4
		c-0.1-0.4-0.1-0.6,0-0.8c0.1-0.1,0.3-0.2,0.4-0.2c0.2,0,0.4,0,0.8,0.6c2.5,4.3,5.4,5.5,6.6,5.8C59.2,12,60,12,60.8,12
		c0.9,0,1.7-0.1,2.4-0.3h-0.1c-2.3-0.9-3.9-3.1-3.9-5.6c0-3.3,2.7-5.9,5.9-5.9C68.4,0.3,71,3,71,6.1c0,0.7-0.1,1.4-0.4,2l0.2,0.1
		c0.9-0.1,1.6-0.1,1.9-0.1H73c0.9,0,2.6-0.3,3.6-2c0,0-1.1-0.9-1.2-1.5c0-0.1,0-0.3,0.1-0.4S75.7,4,75.9,4s0.4,0.1,0.6,0.1
		c-0.1-0.3-0.2-0.5-0.1-0.7c0-0.1,0.1-0.2,0.2-0.3c0.1,0,0.2-0.1,0.3-0.1c0.4,0,1.2,0.6,1.4,0.8c0.6,0.1,2,0.2,2.4,0.4
		C81.1,4.4,81.2,4.6,81.2,5z"/>
	<path class="st1" d="M81.2,5c0,0.4-0.2,0.9-0.7,1.1c-0.7,0.2-1.2,0.6-1.3,0.8c-0.1,0.1-0.4,0.7-0.5,1c-0.2,0.6-0.3,1.2-0.3,2.3
		c0,0.1,0,2.1-0.1,2.9s-0.6,1.5-1.1,1.5c-0.2,0-0.3-0.1-0.4-0.2c-0.1-0.2-0.2-0.4-0.1-0.8c0.1-0.3,0-0.8-0.1-1.3
		c-0.8,1.4-1.6,2.5-2.6,3.4c-0.8,2.2-2.4,3.6-3.7,4.5c-0.7,0.5-1.7,1.1-2.9,1.8c-2.5,1.5-5.7,3.3-8,5.5c-0.6,0.6-1.1,1.1-1.5,1.6
		c-0.7,0.8-1,1.1-1.4,1.1c-0.1,0-0.4,0-0.6-0.5c-0.3-0.7-0.2-2.3,1-3.5c2-2,3.7-3,5.5-4c0.3-0.2,1.2-0.7,1.4-0.8
		c0.8-0.5,2.7-1.7,3.2-2c0.6-0.3,0.9-0.8,1-1.3l-0.2,0.1c-0.4,0.1-1.8,0.5-2.4,0.8c-2.9,1.1-5.6,2.6-7.9,4.3
		c-0.8,0.6-1.4,1.2-1.7,1.6c-0.4,0.4-0.6,0.7-1,0.7c-0.3,0-0.5-0.2-0.7-0.6c-0.3-0.7-0.1-2.1,1.4-3.3c1-0.8,3.7-2.2,3.8-2.2
		c0,0,2.3-1.1,3.4-1.8c1.1-0.7,2.2-1.4,2.5-1.7l0.1-0.1c-0.6-0.1-1.3-0.2-2.3-0.3c-3.7-0.4-6.7-1.6-9.1-3.9c-2.3-2.1-3.2-5-3.3-5.4
		c-0.1-0.4-0.1-0.6,0-0.8c0.1-0.1,0.3-0.2,0.4-0.2c0.2,0,0.4,0,0.8,0.6c2.5,4.3,5.4,5.5,6.6,5.8C59.2,12,60,12,60.8,12
		c0.9,0,1.7-0.1,2.4-0.3h-0.1c-2.3-0.9-3.9-3.1-3.9-5.6c0-3.3,2.7-5.9,5.9-5.9C68.4,0.3,71,3,71,6.1c0,0.7-0.1,1.4-0.4,2l0.2,0.1
		c0.9-0.1,1.6-0.1,1.9-0.1H73c0.9,0,2.6-0.3,3.6-2c0,0-1.1-0.9-1.2-1.5c0-0.1,0-0.3,0.1-0.4S75.7,4,75.9,4s0.4,0.1,0.6,0.1
		c-0.1-0.3-0.2-0.5-0.1-0.7c0-0.1,0.1-0.2,0.2-0.3c0.1,0,0.2-0.1,0.3-0.1c0.4,0,1.2,0.6,1.4,0.8c0.6,0.1,2,0.2,2.4,0.4
		C81.1,4.4,81.2,4.6,81.2,5z"/>
	<path class="st2" d="M2.9,13.1L2.8,13H2.7c0,0-0.1,0-0.1,0.1L0,18.6c-0.1,0.1,0,0.2,0.1,0.2h0.5c0.1,0,0.2,0,0.2-0.1
		C1,18.3,1.1,18,1.3,17.6H4l0.6,1.1c0,0.1,0.1,0.1,0.2,0.1h0.5c0.1,0,0.2-0.1,0.1-0.2L2.9,13.1 M1.7,16.8l1-2.3l1,2.3H1.7z
		 M11.2,13.1h-0.6c-0.1,0-0.2,0.1-0.2,0.2v3.5c0,0.8-0.5,1.5-1.4,1.5c-0.9,0-1.4-0.7-1.4-1.5v-3.5c0-0.1-0.1-0.2-0.2-0.2H7
		c-0.1,0-0.2,0.1-0.2,0.2v3.5c0,1.3,1,2.3,2.3,2.3c1.3,0,2.3-1,2.3-2.3v-3.5C11.4,13.1,11.3,13.1,11.2,13.1 M15,15.5
		c-0.7-0.3-1.1-0.6-1.1-1.1c0-0.3,0.2-0.8,0.9-0.8c0.5,0,1.1,0.4,1.1,0.4c0.1,0.1,0.2,0,0.3-0.1c0.1-0.1,0.1-0.2,0.2-0.3
		c0.1-0.1,0-0.2-0.1-0.3s-0.7-0.5-1.6-0.5c-1.3,0-1.8,0.9-1.8,1.6c0,1,0.7,1.4,1.5,1.8c0.8,0.3,1.3,0.7,1.3,1.2
		c0,0.4-0.4,0.8-0.9,0.8c-0.6,0-1.3-0.5-1.3-0.6c-0.1-0.1-0.2,0-0.3,0.1C13.1,17.8,13.1,18,13,18c-0.1,0.1,0,0.2,0,0.3
		c0.1,0.1,0.8,0.7,1.8,0.7c1.1,0,1.9-0.7,1.9-1.6C16.8,16.3,16,15.9,15,15.5 M22.6,13.1h-4.2c-0.1,0-0.2,0.1-0.2,0.2v0.5
		c0,0.1,0.1,0.2,0.2,0.2h1.7v4.8c0,0.1,0.1,0.2,0.2,0.2h0.5c0.1,0,0.2-0.1,0.2-0.2v-4.9h1.7c0.1,0,0.2-0.1,0.2-0.2v-0.5
		C22.8,13.1,22.7,13.1,22.6,13.1 M28.8,14.8c0-1-0.8-1.8-1.8-1.8h-2.3c-0.1,0-0.2,0.1-0.2,0.2v5.5c0,0.1,0.1,0.2,0.2,0.2h0.5
		c0.1,0,0.2-0.1,0.2-0.2v-2.1h1.3l1.1,2.2l0.1,0.1h0.7c0.1,0,0.2-0.1,0.1-0.2l-1.1-2.1C28.3,16.3,28.8,15.5,28.8,14.8 M26.9,15.8
		h-1.5v-2h1.5c0.5,0,1,0.5,1,1C27.9,15.4,27.4,15.8,26.9,15.8 M33.1,13.1L33,13h-0.1c0,0-0.1,0-0.1,0.1l-2.6,5.6
		c-0.1,0.1,0,0.2,0.1,0.2h0.5c0.1,0,0.2-0.1,0.2-0.1c0.2-0.4,0.3-0.8,0.5-1.1h2.7l0.6,1.1c0,0.1,0.1,0.1,0.2,0.1h0.5
		c0.1,0,0.2-0.1,0.1-0.2L33.1,13.1 M31.9,16.8l1-2.3l1,2.3H31.9z M40.8,18.1h-2.5v-4.9c0-0.1-0.1-0.2-0.2-0.2h-0.6
		c-0.1,0-0.2,0.1-0.2,0.2v5.5c0,0.1,0.1,0.2,0.2,0.2h3.3c0.1,0,0.2-0.1,0.2-0.2v-0.5C40.9,18.1,40.8,18.1,40.8,18.1 M43.3,13.1h-0.6
		c-0.1,0-0.2,0.1-0.2,0.2v5.5c0,0.1,0.1,0.2,0.2,0.2h0.6c0.1,0,0.2-0.1,0.2-0.2v-5.6C43.5,13.1,43.4,13.1,43.3,13.1 M50.7,18.6
		l-2.6-5.6L48,13h-0.1c0,0-0.1,0-0.1,0.1l-2.6,5.6c-0.1,0.1,0,0.2,0.1,0.2h0.5c0.1,0,0.2-0.1,0.2-0.1c0.2-0.4,0.3-0.8,0.5-1.1h2.7
		l0.6,1.1c0,0.1,0.1,0.1,0.2,0.1h0.5C50.6,18.8,50.7,18.8,50.7,18.6 M46.9,16.8l1-2.3l1,2.3H46.9z M67.4,16.8
		c0.2,0.2,0.4,0.6,0.4,0.9c-0.3,0.1-1.8,0.5-2.4,0.8c-3.1,1.2-5.7,2.7-8,4.4c-1.6,1.2-2.1,2.2-2.4,2.2c-0.3,0-0.9-1.5,1-3.2
		c0.9-0.8,3.7-2.2,3.7-2.2s2.3-1.1,3.4-1.8c1.3-0.8,2.3-1.4,2.6-1.9C66.8,16.3,67.3,16.6,67.4,16.8 M76.8,5.6c0.2-0.6,0.3-0.8-0.1-1
		c-0.3-0.1-0.8-0.3-0.9-0.2C75.7,4.6,76.6,5.5,76.8,5.6"/>
	<path class="st3" d="M73.7,15.6c-1.5,1.7-4.3,3-6.4,4.2c1.7-1,1.4-2.7,0.6-3.5c-0.3-0.3-1.2-1.2-1.1-2.7c0-2,1.8-3.6,3.7-3.5
		c0.7,0,1.3,0.2,1.8,0.6c0.1,0.1,0.2,0.1,0.3,0.2c0.8,0.7,1.4,1.7,1.4,2.8C74,14.5,73.7,15.4,73.7,15.6"/>
	<path class="st4" d="M73.7,15.6c-0.7,1.9-2.1,3.4-3.5,4.3c-2.3,1.6-7.5,4.1-10.9,7.3c-1.5,1.4-2.3,2.6-2.7,2.6
		c-0.4,0-0.6-1.9,0.7-3.2c2.4-2.4,4.3-3.3,6.5-4.6c0.1-0.1,3-1.8,3.5-2.2C69.4,18.5,72.2,17.3,73.7,15.6"/>
	<path class="st5" d="M72.3,10.6c-0.5-0.3-1.1-0.5-1.8-0.6c-2-0.1-3.7,1.5-3.7,3.5c0,1.6,0.8,2.4,1.1,2.7c-0.3-0.3-1.3-1-4.7-1.3
		c-4-0.4-6.8-1.8-8.8-3.8c-2.1-1.9-3-4.6-3.2-5.2s0.1-0.7,0.4-0.2c0.2,0.3,2.7,5,6.9,6.1c3.4,0.9,6-0.2,7.2-1
		C68.2,9.5,71,9.6,72.3,10.6 M80.6,4.6c-0.3-0.1-1.6-0.3-2.5-0.4c-0.3-0.3-1.2-0.9-1.3-0.8c-0.2,0.1,0.6,1.1,0.6,1.3
		c0,0.2-0.1,0.8-0.5,1.4c-1.4,2.4-3.9,2.2-4.1,2.2c1,0,3.7,0.1,5.6-1.5l0.4-0.4c0.1-0.1,0.6-0.7,1.5-0.9C80.8,5.6,80.9,4.8,80.6,4.6
		"/>
	<path class="st6" d="M78.3,7.8C78.1,8.4,78,9,78,10.3c0,0,0,2.1-0.1,2.9c-0.2,1.1-1,1.5-0.8,0.6c0.1-0.7-0.2-2.2-0.3-2.6
		C77.4,9.9,77.9,8.7,78.3,7.8"/>
	<path class="st7" d="M65.2,10.3c-0.5,0.3-1.1,0.6-1.9,0.9c-2.1-0.8-3.5-2.8-3.5-5.2c0-3,2.5-5.5,5.5-5.5c3,0,5.5,2.5,5.5,5.5
		c0,0.7-0.1,1.3-0.3,1.9c-0.2,0-0.4,0.1-0.7,0.1c-2,0.5-3.3,1.4-4.3,2.1C65.4,10.1,65.3,10.3,65.2,10.3 M78.4,7
		c-1.9,1.6-4.6,1.5-5.6,1.5c-0.4,0-1.7,0-2.9,0.3c-2.1,0.5-3.4,1.6-4.3,2.2c2.5-1.5,5.4-1.3,6.6-0.4c0.1,0.1,0.2,0.1,0.3,0.2
		c0.8,0.7,1.4,1.7,1.4,2.8c0,0.9-0.3,1.8-0.3,2c1.3-1.3,2.3-2.9,3.1-4.4c0.7-1.3,1.2-2.5,1.5-3.4c0.2-0.6,0.4-1,0.6-1.1
		C78.7,6.8,78.6,7,78.4,7"/>
</g>
</svg>
