<svg id="Layer_1" data-name="Layer 1" xmlns="http://www.w3.org/2000/svg" viewBox="0 0 283.46 198.42"><defs><style>.cls-1{fill:#ef3e33;}.cls-2{fill:#fff;}</style></defs><title>fc_logo_red</title><rect class="cls-1" width="283.46" height="198.42"/><path class="cls-2" d="M46.19,82.94H60.67V70.81H46.19V66.71H60.67V54.58H31.42V96.43H46.19ZM97.53,84H80.22V54.58H65.31V96.43H97.53ZM117,54.58H101.81V96.43H117ZM144.72,97a32.43,32.43,0,0,0,18.45-5.59l.28-.2V72.76H145.31v9.58h4.39v1.5l-.16.06a10.92,10.92,0,0,1-5,1.15c-7.5,0-10.56-2.66-10.56-9.2,0-7.32,3.14-9.91,12-9.91a34.23,34.23,0,0,1,14.16,3.32l1.59.72V57.6l-.4-.17a33.25,33.25,0,0,0-5.56-2,40.91,40.91,0,0,0-10.63-1.39c-15,0-25.14,8.62-25.14,21.46C120,88.14,130.17,97,144.72,97Zm36.08-14.79h13V96.43h14.34V54.58H193.85V68.72h-13V54.58h-14.4V96.43h14.4Zm43,14.25h15.89V67.09h12.47V54.58H211.27v12.5h12.53Zm-80.87,17.34h11.74v27.49h15V113.76h11.69V102h-38.4ZM64.3,125.49a18,18,0,0,1-11,4.67,12.8,12.8,0,0,1-9.62-3.41A7.9,7.9,0,0,1,41,121.43c0-3.49,3.72-8.65,11.72-8.65,5.31,0,8.75,1.19,11.18,3.88L65,117.92V105.13l-.31-.19a14,14,0,0,0-3.34-1.56,27.52,27.52,0,0,0-10.58-1.87,27.16,27.16,0,0,0-12.55,2.73A19.41,19.41,0,0,0,27.3,121.67c0,11.74,9.31,19.93,22.65,19.93a30.24,30.24,0,0,0,15.16-3.84l.35-.19v-9.09l0-4.12ZM82,127.11H96.42V116.69H82v-4.31H97.25V102H68.46v39.09H97.64V130.86H82Zm155.34,3.74v-3.74h14.43V116.69H237.32v-4.31h15.26V102H223.79v39.09H253V130.86ZM127.9,120.43,112.68,102H100.44v39.09H113.8V123l15.9,18.13h11.51V102H127.9Zm92.68,17-1.16-2.54-1-2.11-1.5-3.21c-1.57-3.49-3.09-5.1-4.77-6.16a10.75,10.75,0,0,0,1.62-1.35l.82-.79a10.38,10.38,0,0,0,3.45-7.76,11.65,11.65,0,0,0-5.23-9.53c-2.58-1.58-4.69-2-10.27-2h-19.2v39.09H196.2V126.38h.73a7.68,7.68,0,0,1,2.55.2c1.25.35,1.7,1.25,2.92,4l.35.79,1.44,3.22,1.11,2.44.71,1.7,1.1,2.41h15.15l-.64-1.59Zm-19.24-20-1.18.06-.74.06H196.2v-6h4.11c3.44,0,4.38.63,4.38,2.92C204.68,115.7,204.34,117.35,201.34,117.41Z"/><path class="cls-2" d="M257.89,107h.66c.75,0,1.38-.26,1.38-1,0-.49-.36-1-1.38-1a4.16,4.16,0,0,0-.66,0Zm0,3.1H257v-5.6a10.46,10.46,0,0,1,1.6-.13,3,3,0,0,1,1.76.42,1.33,1.33,0,0,1,.52,1.16,1.4,1.4,0,0,1-1.1,1.36v0c.5.09.84.53.95,1.36a4.28,4.28,0,0,0,.37,1.38h-1a4.21,4.21,0,0,1-.38-1.43,1,1,0,0,0-1.21-1h-.64Zm1-7.15a4.25,4.25,0,0,0,0,8.49,4.25,4.25,0,0,0,0-8.49Zm0-.78a5,5,0,1,1-5.05,5,5,5,0,0,1,5.05-5Z"/></svg>